<mxfile host="app.diagrams.net" agent="Mozilla/5.0 (Windows NT 10.0; Win64; x64) AppleWebKit/537.36 (KHTML, like Gecko) Chrome/131.0.0.0 Safari/537.36" version="25.0.3">
  <diagram name="Страница — 1" id="XPLThdvjVCRZbLUzJAEC">
    <mxGraphModel grid="1" page="1" gridSize="10" guides="1" tooltips="1" connect="1" arrows="1" fold="1" pageScale="1" pageWidth="827" pageHeight="1169" math="0" shadow="0">
      <root>
        <mxCell id="0" />
        <mxCell id="1" parent="0" />
        <mxCell id="noWQwKPJxdgNb2NSCmZQ-2" value="" style="rounded=0;whiteSpace=wrap;html=1;" vertex="1" parent="1">
          <mxGeometry y="160" width="190" height="120" as="geometry" />
        </mxCell>
        <mxCell id="noWQwKPJxdgNb2NSCmZQ-3" value="Api Gateway" style="text;strokeColor=none;align=center;fillColor=none;html=1;verticalAlign=middle;whiteSpace=wrap;rounded=0;" vertex="1" parent="1">
          <mxGeometry x="65" y="180" width="60" height="30" as="geometry" />
        </mxCell>
        <mxCell id="noWQwKPJxdgNb2NSCmZQ-4" value="User" style="swimlane;" vertex="1" parent="1">
          <mxGeometry x="280" y="10" width="590" height="120" as="geometry" />
        </mxCell>
        <mxCell id="noWQwKPJxdgNb2NSCmZQ-34" value="BlogUser" style="rounded=1;whiteSpace=wrap;html=1;" vertex="1" parent="noWQwKPJxdgNb2NSCmZQ-4">
          <mxGeometry x="14" y="30" width="120" height="60" as="geometry" />
        </mxCell>
        <mxCell id="noWQwKPJxdgNb2NSCmZQ-36" value="Refresh Token" style="rounded=1;whiteSpace=wrap;html=1;" vertex="1" parent="noWQwKPJxdgNb2NSCmZQ-4">
          <mxGeometry x="140" y="30" width="120" height="60" as="geometry" />
        </mxCell>
        <mxCell id="noWQwKPJxdgNb2NSCmZQ-38" value="U&lt;span style=&quot;background-color: initial;&quot;&gt;pdate&lt;/span&gt;" style="rounded=1;whiteSpace=wrap;html=1;" vertex="1" parent="noWQwKPJxdgNb2NSCmZQ-4">
          <mxGeometry x="400" y="30" width="120" height="60" as="geometry" />
        </mxCell>
        <mxCell id="noWQwKPJxdgNb2NSCmZQ-5" value="Blog" style="swimlane;" vertex="1" parent="1">
          <mxGeometry x="280" y="150" width="590" height="220" as="geometry">
            <mxRectangle x="440" y="260" width="60" height="30" as="alternateBounds" />
          </mxGeometry>
        </mxCell>
        <mxCell id="noWQwKPJxdgNb2NSCmZQ-28" value="Post" style="swimlane;whiteSpace=wrap;html=1;" vertex="1" parent="noWQwKPJxdgNb2NSCmZQ-5">
          <mxGeometry x="190" y="30" width="150" height="180" as="geometry" />
        </mxCell>
        <mxCell id="noWQwKPJxdgNb2NSCmZQ-29" value="Categoty" style="rounded=1;whiteSpace=wrap;html=1;" vertex="1" parent="noWQwKPJxdgNb2NSCmZQ-28">
          <mxGeometry x="10" y="30" width="120" height="60" as="geometry" />
        </mxCell>
        <mxCell id="noWQwKPJxdgNb2NSCmZQ-30" value="Reaction" style="rounded=1;whiteSpace=wrap;html=1;" vertex="1" parent="noWQwKPJxdgNb2NSCmZQ-28">
          <mxGeometry x="10" y="100" width="120" height="60" as="geometry" />
        </mxCell>
        <mxCell id="noWQwKPJxdgNb2NSCmZQ-22" value="Repost" style="rounded=1;whiteSpace=wrap;html=1;" vertex="1" parent="noWQwKPJxdgNb2NSCmZQ-5">
          <mxGeometry x="370" y="90" width="120" height="60" as="geometry" />
        </mxCell>
        <mxCell id="noWQwKPJxdgNb2NSCmZQ-14" value="Notify" style="swimlane;whiteSpace=wrap;html=1;" vertex="1" parent="1">
          <mxGeometry x="280" y="380" width="590" height="110" as="geometry" />
        </mxCell>
        <mxCell id="noWQwKPJxdgNb2NSCmZQ-19" value="Mail" style="rounded=1;whiteSpace=wrap;html=1;" vertex="1" parent="noWQwKPJxdgNb2NSCmZQ-14">
          <mxGeometry x="74" y="40" width="120" height="60" as="geometry" />
        </mxCell>
        <mxCell id="noWQwKPJxdgNb2NSCmZQ-20" value="Subscriber" style="rounded=1;whiteSpace=wrap;html=1;" vertex="1" parent="noWQwKPJxdgNb2NSCmZQ-14">
          <mxGeometry x="410" y="40" width="120" height="60" as="geometry" />
        </mxCell>
        <mxCell id="noWQwKPJxdgNb2NSCmZQ-7" value="MongoDB" style="shape=datastore;whiteSpace=wrap;html=1;" vertex="1" parent="1">
          <mxGeometry x="930" y="50" width="60" height="60" as="geometry" />
        </mxCell>
        <mxCell id="noWQwKPJxdgNb2NSCmZQ-8" value="PostgreSQL" style="shape=datastore;whiteSpace=wrap;html=1;" vertex="1" parent="1">
          <mxGeometry x="930" y="240" width="70" height="60" as="geometry" />
        </mxCell>
        <mxCell id="noWQwKPJxdgNb2NSCmZQ-15" value="RabbitMQ" style="shape=datastore;whiteSpace=wrap;html=1;" vertex="1" parent="1">
          <mxGeometry x="930" y="400" width="70" height="60" as="geometry" />
        </mxCell>
        <mxCell id="noWQwKPJxdgNb2NSCmZQ-52" value="" style="endArrow=classic;html=1;rounded=0;" edge="1" parent="1">
          <mxGeometry width="50" height="50" relative="1" as="geometry">
            <mxPoint x="870" y="60" as="sourcePoint" />
            <mxPoint x="930" y="60" as="targetPoint" />
          </mxGeometry>
        </mxCell>
        <mxCell id="noWQwKPJxdgNb2NSCmZQ-57" value="" style="endArrow=classic;html=1;rounded=0;" edge="1" parent="1">
          <mxGeometry width="50" height="50" relative="1" as="geometry">
            <mxPoint x="930" y="99.5" as="sourcePoint" />
            <mxPoint x="870" y="99.5" as="targetPoint" />
          </mxGeometry>
        </mxCell>
        <mxCell id="noWQwKPJxdgNb2NSCmZQ-58" value="" style="endArrow=classic;html=1;rounded=0;" edge="1" parent="1">
          <mxGeometry width="50" height="50" relative="1" as="geometry">
            <mxPoint x="930" y="420" as="sourcePoint" />
            <mxPoint x="870" y="420" as="targetPoint" />
          </mxGeometry>
        </mxCell>
        <mxCell id="noWQwKPJxdgNb2NSCmZQ-60" value="" style="endArrow=classic;html=1;rounded=0;" edge="1" parent="1">
          <mxGeometry width="50" height="50" relative="1" as="geometry">
            <mxPoint x="870" y="450" as="sourcePoint" />
            <mxPoint x="930" y="450" as="targetPoint" />
          </mxGeometry>
        </mxCell>
        <mxCell id="VHJTfOfWXQfto4sqEGP0-2" value="" style="endArrow=classic;html=1;rounded=0;" edge="1" parent="1">
          <mxGeometry width="50" height="50" relative="1" as="geometry">
            <mxPoint x="870" y="260" as="sourcePoint" />
            <mxPoint x="930" y="260" as="targetPoint" />
          </mxGeometry>
        </mxCell>
        <mxCell id="VHJTfOfWXQfto4sqEGP0-3" value="" style="endArrow=classic;html=1;rounded=0;" edge="1" parent="1">
          <mxGeometry width="50" height="50" relative="1" as="geometry">
            <mxPoint x="930" y="289.5" as="sourcePoint" />
            <mxPoint x="870" y="289.5" as="targetPoint" />
          </mxGeometry>
        </mxCell>
        <mxCell id="VHJTfOfWXQfto4sqEGP0-4" value="" style="endArrow=none;html=1;rounded=0;" edge="1" parent="1">
          <mxGeometry width="50" height="50" relative="1" as="geometry">
            <mxPoint x="190" y="190" as="sourcePoint" />
            <mxPoint x="240" y="190" as="targetPoint" />
          </mxGeometry>
        </mxCell>
        <mxCell id="VHJTfOfWXQfto4sqEGP0-5" value="" style="endArrow=none;html=1;rounded=0;" edge="1" parent="1">
          <mxGeometry width="50" height="50" relative="1" as="geometry">
            <mxPoint x="240" y="190" as="sourcePoint" />
            <mxPoint x="240" y="70" as="targetPoint" />
          </mxGeometry>
        </mxCell>
        <mxCell id="VHJTfOfWXQfto4sqEGP0-6" value="" style="endArrow=classic;html=1;rounded=0;entryX=0;entryY=0.5;entryDx=0;entryDy=0;" edge="1" parent="1" target="noWQwKPJxdgNb2NSCmZQ-4">
          <mxGeometry width="50" height="50" relative="1" as="geometry">
            <mxPoint x="240" y="70" as="sourcePoint" />
            <mxPoint x="290" y="20" as="targetPoint" />
          </mxGeometry>
        </mxCell>
        <mxCell id="VHJTfOfWXQfto4sqEGP0-7" value="" style="endArrow=classic;html=1;rounded=0;" edge="1" parent="1">
          <mxGeometry width="50" height="50" relative="1" as="geometry">
            <mxPoint x="190" y="230" as="sourcePoint" />
            <mxPoint x="280" y="230" as="targetPoint" />
          </mxGeometry>
        </mxCell>
        <mxCell id="VHJTfOfWXQfto4sqEGP0-8" value="" style="endArrow=none;html=1;rounded=0;" edge="1" parent="1">
          <mxGeometry width="50" height="50" relative="1" as="geometry">
            <mxPoint x="190" y="270" as="sourcePoint" />
            <mxPoint x="240" y="270" as="targetPoint" />
          </mxGeometry>
        </mxCell>
        <mxCell id="VHJTfOfWXQfto4sqEGP0-9" value="" style="endArrow=none;html=1;rounded=0;" edge="1" parent="1">
          <mxGeometry width="50" height="50" relative="1" as="geometry">
            <mxPoint x="240" y="440" as="sourcePoint" />
            <mxPoint x="240" y="270" as="targetPoint" />
          </mxGeometry>
        </mxCell>
        <mxCell id="VHJTfOfWXQfto4sqEGP0-10" value="" style="endArrow=classic;html=1;rounded=0;" edge="1" parent="1">
          <mxGeometry width="50" height="50" relative="1" as="geometry">
            <mxPoint x="240" y="434.5" as="sourcePoint" />
            <mxPoint x="280" y="434.5" as="targetPoint" />
          </mxGeometry>
        </mxCell>
        <mxCell id="RglSTvQfG8D80FeNsXYP-3" value="Container" style="swimlane;" vertex="1" parent="1">
          <mxGeometry x="280" y="510" width="590" height="100" as="geometry" />
        </mxCell>
        <mxCell id="noWQwKPJxdgNb2NSCmZQ-35" value="Authentication" style="rounded=1;whiteSpace=wrap;html=1;" vertex="1" parent="RglSTvQfG8D80FeNsXYP-3">
          <mxGeometry x="220" y="30" width="120" height="60" as="geometry" />
        </mxCell>
        <mxCell id="RglSTvQfG8D80FeNsXYP-4" value="PostgreSQL" style="shape=datastore;whiteSpace=wrap;html=1;" vertex="1" parent="1">
          <mxGeometry x="930" y="525" width="70" height="60" as="geometry" />
        </mxCell>
        <mxCell id="RglSTvQfG8D80FeNsXYP-5" value="" style="endArrow=classic;html=1;rounded=0;" edge="1" parent="1">
          <mxGeometry width="50" height="50" relative="1" as="geometry">
            <mxPoint x="930" y="540" as="sourcePoint" />
            <mxPoint x="870" y="540" as="targetPoint" />
          </mxGeometry>
        </mxCell>
        <mxCell id="RglSTvQfG8D80FeNsXYP-6" value="" style="endArrow=classic;html=1;rounded=0;" edge="1" parent="1">
          <mxGeometry width="50" height="50" relative="1" as="geometry">
            <mxPoint x="870" y="570" as="sourcePoint" />
            <mxPoint x="930" y="570" as="targetPoint" />
          </mxGeometry>
        </mxCell>
      </root>
    </mxGraphModel>
  </diagram>
</mxfile>
